<svg width="170" height="26" viewBox="0 0 170 26" fill="none" xmlns="http://www.w3.org/2000/svg">
<path d="M35.5037 0.398529L28.4392 25.1805H22.4615L17.7156 7.53487L12.7523 25.1805L6.81091 25.216L0 0.398529C0 0.398529 3.37461 -0.102784 5.43424 0.398529C13.0656 2.256 2.03141 19.387 9.89032 19.6418C17.813 19.8987 7.34725 2.29391 15.0347 0.398529C17.1751 -0.129196 18.5478 -0.136477 20.6863 0.398529C28.3001 2.30331 17.6842 19.6704 25.5409 19.5353C33.3647 19.4007 22.4432 2.26348 30.0332 0.398529C32.1054 -0.110634 35.5037 0.398529 35.5037 0.398529Z" fill="white"/>
<path d="M36.7867 15.2748C36.7867 13.2866 37.1852 11.5232 37.9822 9.98466C38.8034 8.44615 39.9023 7.26267 41.279 6.43424C42.6798 5.60581 44.2376 5.19159 45.9524 5.19159C47.4499 5.19159 48.7541 5.48746 49.8651 6.0792C51.0003 6.67094 51.906 7.41653 52.5822 8.31596C52.5822 8.31596 52.0359 6.46672 52.5822 5.51113C53.5573 3.80559 57.6904 5.51113 57.6904 5.51113V25.1805H52.5822V22.3046C51.9301 23.2277 51.0244 23.997 49.8651 24.6124C48.7299 25.2041 47.4137 25.5 45.9162 25.5C44.2256 25.5 42.6798 25.0739 41.279 24.2218C39.9023 23.3697 38.8034 22.1744 37.9822 20.6359C37.1852 19.0737 36.7867 17.2867 36.7867 15.2748ZM52.5822 15.3458C52.5822 15.3458 52.3407 13.109 51.8577 12.2569C51.3746 11.3812 50.7225 10.7184 49.9013 10.2687C49.0802 9.79531 48.1986 9.55861 47.2567 9.55861C46.3147 9.55861 45.4452 9.78347 44.6482 10.2332C43.8512 10.6829 43.1991 11.3457 42.6919 12.2214C42.2089 13.0735 41.9673 15.2748 41.9673 15.2748C41.9673 15.2748 42.2089 17.4997 42.6919 18.3992C43.1991 19.2749 43.8512 19.9495 44.6482 20.4229C45.4694 20.8963 46.3389 21.133 47.2567 21.133C48.1986 21.133 49.0802 20.9081 49.9013 20.4584C50.7225 19.985 51.3746 19.3223 51.8577 18.4702C52.3407 17.5944 52.5822 15.3458 52.5822 15.3458Z" fill="white"/>
<path d="M70.2882 20.6004C76.619 20.6004 69.2742 7.2195 75.3602 5.51113C77.3867 4.94227 80.7582 5.51113 80.7582 5.51113L73.3314 25.1805H67.1726L59.782 5.51113C59.782 5.51113 63.177 4.93524 65.2163 5.51113C71.2995 7.22908 63.9575 20.6004 70.2882 20.6004Z" fill="white"/>
<path d="M101.54 14.9197C101.54 15.6298 101.492 16.2689 101.395 16.837C101.298 17.405 86.6018 15.4168 86.7225 16.837C86.8433 18.2571 87.3505 19.3696 88.2441 20.1744C89.1378 20.9791 90.2367 21.3815 91.5409 21.3815C93.4248 21.3815 94.7652 20.5886 95.5622 19.0027C96.3593 17.4169 101.033 19.0027 101.033 19.0027C100.453 20.8963 99.3421 22.4585 97.6997 23.6893C96.0574 24.8964 94.0407 25.5 91.6496 25.5C89.7174 25.5 87.9785 25.0858 86.4327 24.2574C84.9111 23.4053 83.7156 22.2099 82.8461 20.6714C82.0008 19.1329 81.5781 17.3577 81.5781 15.3458C81.5781 13.3102 82.0008 11.5232 82.8461 9.98466C83.6915 8.44615 84.8749 7.26267 86.3965 6.43424C87.9181 5.60581 89.6691 5.19159 91.6496 5.19159C93.5576 5.19159 95.2603 5.59398 96.7578 6.39874C98.2794 7.2035 99.4507 8.35147 100.272 9.84265C101.117 11.3102 101.54 13.0025 101.54 14.9197ZM96.2868 13.4996C96.2627 12.2214 95.7917 11.2036 94.8739 10.4462C93.9561 9.66512 92.833 9.27458 91.5047 9.27458C90.2488 9.27458 89.1861 9.65329 88.3166 10.4107C87.4713 11.1445 86.952 12.1741 86.7588 13.4996C86.7588 13.4996 96.311 14.7777 96.2868 13.4996Z" fill="white"/>
<path d="M112.198 25.5C110.555 25.5 109.082 25.216 107.778 24.6479C106.474 24.0562 105.435 23.2632 104.662 22.2691C103.914 21.275 103.503 20.1744 103.431 18.9672C103.358 17.7601 108.442 18.2098 108.539 18.9672C108.635 19.7246 109.01 20.3519 109.662 20.849C110.338 21.346 112.162 21.5945 112.162 21.5945C112.162 21.5945 113.876 21.4052 114.408 21.0265C114.963 20.6478 115.241 20.1625 115.241 19.5708C115.241 18.9317 114.227 18.1506 114.227 18.1506L111.075 17.0855C111.075 17.0855 108.346 16.3636 107.379 15.9849C106.438 15.6062 105.616 15.0263 104.916 14.2452C104.24 13.4641 103.902 12.4108 103.902 11.0853C103.902 9.9965 104.216 9.00238 104.843 8.10294C105.496 7.2035 106.413 6.49342 107.597 5.97269C108.804 5.45196 110.217 5.19159 111.836 5.19159C114.227 5.19159 116.135 5.78333 117.56 6.96681C118.985 8.12661 119.77 9.70063 119.914 11.6889C120.059 13.6771 115.132 12.47 115.06 11.6889C114.987 10.9078 114.649 10.2924 114.045 9.84265C113.466 9.36926 111.691 9.13256 111.691 9.13256C111.691 9.13256 110.06 9.29825 109.553 9.62962C109.07 9.96099 108.829 10.4225 108.829 11.0143C108.829 11.677 109.167 12.1859 109.843 12.541C110.519 12.8723 112.995 13.5706 112.995 13.5706C112.995 13.5706 115.64 14.2925 116.581 14.6712C117.523 15.0499 118.332 15.6417 119.009 16.4464C119.709 17.2275 120.071 18.269 120.096 19.5708C120.096 20.7069 119.77 21.7247 119.117 22.6242C118.489 23.5236 117.572 24.2337 116.364 24.7544C115.181 25.2515 113.792 25.5 112.198 25.5Z" fill="white"/>
<path d="M122.303 12.754C122.303 10.1243 122.858 8.13844 123.969 6.22122C125.104 4.28032 126.638 2.77731 128.57 1.71218C130.526 0.623389 132.712 0.0789907 135.127 0.0789907C137.953 0.0789907 140.429 0.789075 142.554 2.20924C144.68 3.62941 146.165 5.59398 147.01 8.10294C147.856 10.6119 141.757 9.28641 141.178 8.10294C140.598 6.91947 139.777 6.03186 138.714 5.44012C137.676 4.84839 136.468 4.55252 135.091 4.55252C133.618 4.55252 132.302 4.89573 131.142 5.58214C130.007 6.24489 129.114 7.19166 128.461 8.42248C127.833 9.65329 127.52 12.754 127.52 12.754C127.52 12.754 127.833 15.831 128.461 17.0855C129.114 18.3163 130.007 19.2749 131.142 19.9613C132.302 20.6241 133.618 20.9555 135.091 20.9555C136.468 20.9555 137.676 20.6596 138.714 20.0679C139.777 19.4525 140.598 18.553 141.178 17.3695C141.757 16.1861 147.856 14.8369 147.01 17.3695C146.165 19.9022 144.68 21.8786 142.554 23.2987C140.453 24.6952 137.977 25.3935 135.127 25.3935C132.712 25.3935 130.526 24.8609 128.57 23.7958C126.638 22.707 125.104 21.204 123.969 19.2868C122.858 17.3695 122.303 15.3837 122.303 12.754Z" fill="white"/>
<path d="M159.53 25.5C157.598 25.5 155.859 25.0858 154.313 24.2574C152.767 23.4053 151.548 22.2099 150.654 20.6714C149.785 19.1329 149.35 17.3577 149.35 15.3458C149.35 13.3339 149.797 11.5587 150.69 10.0202C151.608 8.48165 152.852 7.29818 154.422 6.46975C155.992 5.61765 157.743 5.19159 159.675 5.19159C161.607 5.19159 163.358 5.61765 164.928 6.46975C166.498 7.29818 167.73 8.48165 168.623 10.0202C169.541 11.5587 170 13.3339 170 15.3458C170 17.3577 169.529 19.1329 168.587 20.6714C167.669 22.2099 166.413 23.4053 164.819 24.2574C163.249 25.0858 161.486 25.5 159.53 25.5ZM159.53 21.1685C159.53 21.1685 161.305 20.9555 162.102 20.5294C162.923 20.0797 163.576 19.4169 164.059 18.5412C164.542 17.6654 164.783 15.3458 164.783 15.3458C164.783 15.3458 164.276 12.0439 163.262 11.0498C162.271 10.032 159.602 9.52311 159.602 9.52311C159.602 9.52311 156.934 10.032 155.943 11.0498C154.977 12.0439 154.494 15.3458 154.494 15.3458C154.494 15.3458 154.965 18.6595 155.907 19.6773C156.873 20.6714 159.53 21.1685 159.53 21.1685Z" fill="white"/>
</svg>
